<svg width="250" height="40" viewBox="0 0 250 40" fill="none" xmlns="http://www.w3.org/2000/svg">
<mask id="mask0_2_3723" style="mask-type:luminance" maskUnits="userSpaceOnUse" x="0" y="0" width="249" height="40">
<path d="M248.596 0.0800781H0.458984V39.1045H248.596V0.0800781Z" fill="white"/>
</mask>
<g mask="url(#mask0_2_3723)">
<path d="M30.1665 23.5239C32.3616 29.4556 38.9665 32.4605 44.8982 30.3239C50.8299 28.1288 53.8348 21.5239 51.6299 15.5922C49.4348 9.66052 42.8299 6.65564 36.8982 8.79222C31.0348 10.9971 28.0299 17.5922 30.1665 23.5239Z" fill="white"/>
<path d="M20.1303 30.0397C25.9384 27.5205 28.6047 20.77 26.0856 14.9619C23.5664 9.15374 16.8159 6.48749 11.0078 9.00662C5.19964 11.5258 2.53338 18.2763 5.05252 24.0844C7.57165 29.8926 14.3222 32.5589 20.1303 30.0397Z" fill="white"/>
<path d="M17.5027 19.3971C17.5027 20.5971 16.5661 21.5337 15.3661 21.5337C14.1661 21.5337 13.2295 20.5971 13.2295 19.3971C13.2295 18.2654 14.1661 17.2605 15.3661 17.2605C16.5661 17.2605 17.5027 18.2556 17.5027 19.3971Z" fill="#101010" fill-opacity="0.69"/>
<path d="M43.0344 19.3971C43.0344 20.5971 42.0978 21.5337 40.8978 21.5337C39.6978 21.5337 38.7612 20.5971 38.7612 19.3971C38.7612 18.2654 39.6978 17.2605 40.8978 17.2605C42.0978 17.2605 43.0344 18.2556 43.0344 19.3971Z" fill="#101010" fill-opacity="0.69"/>
<path d="M9.10254 19.3972C9.10254 22.8606 11.9026 25.6606 15.366 25.6606C18.8294 25.6606 21.6294 22.8606 21.6294 19.3972C21.6294 15.9338 18.8294 13.1338 15.366 13.1338C11.9709 13.1241 9.10254 15.9241 9.10254 19.3972ZM11.2977 19.3972C11.2977 17.1338 13.1611 15.2606 15.4343 15.2606C17.6977 15.2606 19.5709 17.1241 19.5709 19.3972C19.5709 21.6704 17.7075 23.5338 15.4343 23.5338C13.1709 23.5241 11.2977 21.6606 11.2977 19.3972Z" fill="#101010" fill-opacity="0.69"/>
<path d="M34.6343 19.3972C34.6343 22.8606 37.4343 25.6606 40.8977 25.6606C44.3611 25.6606 47.1611 22.8606 47.1611 19.3972C47.1611 15.9338 44.3611 13.1338 40.8977 13.1338C37.4343 13.1241 34.6343 15.9241 34.6343 19.3972ZM36.7709 19.3972C36.7709 17.1338 38.6343 15.2606 40.9074 15.2606C43.1709 15.2606 45.044 17.1241 45.044 19.3972C45.044 21.6704 43.1806 23.5338 40.9074 23.5338C38.6343 23.5241 36.7709 21.6606 36.7709 19.3972Z" fill="#101010" fill-opacity="0.69"/>
<path d="M36.4978 7.59232C37.8344 7.12403 39.1612 6.86062 40.4978 6.86062C36.8295 5.19232 32.7027 4.39233 28.1661 4.39233C23.6295 4.39233 19.4344 5.26063 15.7661 6.79233C22.3612 6.92892 27.6978 12.0606 28.1661 18.5875C28.3027 17.1241 28.6344 15.5924 29.2978 14.1875C30.771 11.1241 33.3661 8.79233 36.4978 7.59232Z" fill="#101010" fill-opacity="0.69"/>
<path d="M51.1614 11.9923C51.7565 9.45574 53.6297 6.86061 53.6297 6.86061H45.1614C40.4297 3.7972 34.6345 2.12891 28.2345 2.12891C21.5711 2.12891 15.5711 3.7972 10.8394 6.92891H2.89795C2.89795 6.92891 4.76136 9.46549 5.36624 11.9923C3.83453 14.1289 2.89795 16.6557 2.89795 19.524C2.89795 26.5191 8.63453 32.2557 15.6297 32.2557C19.6297 32.2557 23.2297 30.3923 25.5614 27.4557L28.2931 31.524L31.0248 27.4557C32.2248 28.9874 33.8248 30.2557 35.6882 31.124C38.7516 32.5191 42.2248 32.6557 45.4248 31.524C52.0199 29.0557 55.3565 21.7289 52.9565 15.1923C52.4297 13.9923 51.8345 12.9289 51.1614 11.9923ZM28.1662 4.39232C32.7614 4.39232 36.8979 5.19232 40.4979 6.86061C39.1614 6.92891 37.8345 7.12403 36.4979 7.59232C33.2979 8.79232 30.7614 11.124 29.3662 14.1874C28.7028 15.5826 28.3711 17.0557 28.2345 18.5874C27.7662 12.0508 22.4394 6.91915 15.8345 6.79232C19.4345 5.26061 23.6297 4.39232 28.1662 4.39232ZM23.9711 25.1923C22.176 27.8557 19.0345 29.6606 15.5711 29.6606C9.97112 29.6606 5.43453 25.124 5.43453 19.524C5.43453 13.924 9.97112 9.3972 15.5711 9.3972C21.1711 9.3972 25.7077 13.9338 25.7077 19.5338C25.7077 19.8655 25.6394 20.1972 25.5711 20.5289C25.4345 22.2557 24.8979 23.8557 23.9711 25.1923ZM44.4297 29.124C41.8931 30.0606 39.0931 29.924 36.6345 28.7923C34.8979 27.9923 33.4345 26.724 32.4394 25.124C32.0394 24.4606 31.6394 23.7874 31.376 23.0557C31.0443 22.1874 30.9077 21.3874 30.8394 20.4606C30.6443 18.724 30.9077 16.9289 31.7077 15.2606C32.8394 12.7923 34.8394 10.9289 37.4443 9.99231C42.7126 8.06061 48.576 10.724 50.5077 15.9923C52.4297 21.3289 49.6979 27.124 44.4297 29.124Z" fill="#101010" fill-opacity="0.69"/>
<path d="M185.356 4.19705C185.356 5.53364 186.488 6.66535 187.825 6.66535C189.161 6.66535 190.293 5.53364 190.293 4.19705C190.293 2.86047 189.161 1.72876 187.825 1.72876C186.42 1.72876 185.356 2.86047 185.356 4.19705Z" fill="#101010" fill-opacity="0.69"/>
<path d="M68.6344 4.0606L64.8978 5.32889C64.8978 5.32889 64.8978 9.79715 64.8978 10.1971C64.4978 10.1971 60.7612 10.1971 60.7612 10.1971V13.4654C60.7612 13.4654 64.3612 13.4654 64.7612 13.4654C64.7612 13.8654 64.7612 23.9337 64.7612 23.9337C64.7612 28.9289 66.4295 30.9289 70.6246 30.9289C71.6881 30.9289 72.6929 30.7923 73.6881 30.5289L73.8246 30.4606L73.7564 27.0654L73.4929 27.202C72.6929 27.4654 72.0295 27.602 71.5612 27.602C69.6295 27.602 68.8978 26.4703 68.8978 23.5337C68.8978 23.5337 68.8978 13.8654 68.8978 13.3971C69.2978 13.3971 73.6295 13.3971 73.6295 13.3971V10.1289C73.6295 10.1289 69.2978 10.1289 68.8978 10.1289C68.8978 9.72889 68.8978 3.86548 68.8978 3.86548L68.6344 4.0606Z" fill="#101010" fill-opacity="0.69"/>
<path d="M81.5612 13.4556C81.5612 12.3239 81.5612 10.1191 81.5612 10.1191H77.7661V30.5191H81.9027V20.3239C81.9027 16.0605 83.6978 13.6605 86.9661 13.6605C87.4344 13.6605 87.9027 13.7288 88.4295 13.8556L88.6929 13.9239L88.8295 9.92394L87.0344 9.78735C84.6929 9.85565 82.7612 11.1239 81.5612 13.4556Z" fill="#101010" fill-opacity="0.69"/>
<path d="M111.025 9.72876C108.157 9.72876 105.825 11.0653 104.225 13.5238C104.225 12.5287 104.225 10.1872 104.225 10.1872H100.43V38.8507H104.566C104.566 38.8507 104.566 28.8507 104.566 27.719C106.03 29.719 108.166 30.8507 110.83 30.8507C116.03 30.8507 119.425 26.5872 119.425 19.9141C119.493 13.8555 116.098 9.72876 111.025 9.72876ZM109.893 27.5238C106.625 27.5238 104.625 24.7238 104.625 20.2555C104.625 15.9238 106.761 13.1238 110.088 13.1238C113.288 13.1238 115.22 15.7872 115.22 20.1872C115.161 24.7238 113.093 27.5238 109.893 27.5238Z" fill="#101010" fill-opacity="0.69"/>
<path d="M131.561 9.72876C129.025 9.72876 126.83 10.197 124.761 11.1921L124.625 11.2604L124.693 14.7921L125.025 14.597C126.956 13.5336 128.82 12.9287 130.488 12.9287C133.483 12.9287 135.22 14.6653 135.22 17.6604V17.8555C134.888 17.8555 132.888 17.8555 132.888 17.8555C126.088 17.8555 122.352 20.3238 122.352 24.7921C122.352 28.3921 125.083 30.8604 128.947 30.8604C131.815 30.8604 134.01 29.7287 135.542 27.6604C135.542 28.4604 135.542 30.597 135.542 30.597H139.278V18.2555C139.161 12.597 136.625 9.72876 131.561 9.72876ZM135.161 21.9921C135.161 25.5238 133.025 27.7872 129.766 27.7872C127.766 27.7872 126.371 26.4507 126.371 24.5872C126.371 22.119 128.703 20.7921 133.034 20.7921C133.034 20.7921 134.83 20.7921 135.171 20.7921C135.161 21.0555 135.161 21.9921 135.161 21.9921Z" fill="#101010" fill-opacity="0.69"/>
<path d="M156.761 0.46056C156.761 0.46056 156.761 11.7971 156.761 12.9288C155.23 10.7922 153.093 9.66056 150.361 9.66056C145.298 9.66056 141.893 13.7971 141.893 19.9922C141.893 26.3922 145.356 30.7922 150.293 30.7922C153.23 30.7922 155.493 29.5239 157.093 26.9971C157.093 27.9922 157.093 30.4605 157.093 30.4605H160.888V0.323975H156.752V0.46056H156.761ZM151.356 27.4557C148.225 27.4557 146.225 24.7239 146.225 20.3239C146.225 15.9239 148.225 13.0557 151.22 13.0557C154.615 13.0557 156.683 15.7874 156.683 20.3239C156.761 24.6557 154.625 27.4557 151.356 27.4557Z" fill="#101010" fill-opacity="0.69"/>
<path d="M179.357 10.197L173.493 21.9239L168.088 10.197H163.425L173.357 30.5873L183.62 10.197H179.357Z" fill="#101010" fill-opacity="0.69"/>
<path d="M189.688 10.197H185.756V30.5873H189.893V10.197H189.688Z" fill="#101010" fill-opacity="0.69"/>
<path d="M194.752 15.3972C194.752 18.2655 196.752 19.7972 200.352 21.5338C202.615 22.6655 203.815 23.3289 203.815 24.9289C203.815 26.5289 202.352 27.5924 200.078 27.5924C198.478 27.5924 196.683 27.1241 194.878 26.2558L194.547 26.1192L194.41 29.7192L194.547 29.7875C196.215 30.4509 198.01 30.7826 199.883 30.7826C204.947 30.7826 208.215 28.3826 208.215 24.646C208.215 21.5143 206.147 19.9826 202.547 18.3143C199.952 17.1143 198.81 16.3826 198.81 15.046C198.81 13.7777 200.01 12.9777 201.942 12.9777C203.678 12.9777 205.337 13.3777 206.878 14.1094L207.142 14.246L207.337 10.7143L207.2 10.646C205.464 10.1094 203.805 9.91431 202.205 9.91431C197.756 9.92406 194.752 12.1289 194.752 15.3972Z" fill="#101010" fill-opacity="0.69"/>
<path d="M221.152 9.72876C214.957 9.72876 211.083 13.797 211.083 20.3921C211.083 26.9872 214.947 31.0555 221.152 31.0555C227.415 31.0555 231.288 26.9872 231.288 20.3921C231.22 13.797 227.357 9.72876 221.152 9.72876ZM221.152 27.6604C217.757 27.6604 215.415 24.7238 215.415 20.3238C215.415 15.9238 217.747 12.9872 221.152 12.9872C224.615 12.9872 226.888 15.8555 226.888 20.3238C226.888 24.7921 224.625 27.6604 221.152 27.6604Z" fill="#101010" fill-opacity="0.69"/>
<path d="M238.888 13.4556C238.888 12.3239 238.888 10.1191 238.888 10.1191H235.093V30.5191H239.23V20.3239C239.23 16.0605 241.025 13.6605 244.293 13.6605C244.762 13.6605 245.23 13.7288 245.757 13.8556L246.02 13.9239L246.157 9.92394L244.362 9.78735C242.02 9.85565 240.088 11.1239 238.888 13.4556Z" fill="#101010" fill-opacity="0.69"/>
<path d="M96.2247 10.197H92.293V30.5873H96.4296V10.197H96.2247Z" fill="#101010" fill-opacity="0.69"/>
<path d="M91.8931 4.19705C91.8931 5.53364 93.0248 6.66535 94.3614 6.66535C95.6979 6.66535 96.8296 5.53364 96.8296 4.19705C96.8296 2.86047 95.6979 1.72876 94.3614 1.72876C93.0248 1.72876 91.8931 2.86047 91.8931 4.19705Z" fill="#101010" fill-opacity="0.69"/>
</g>
</svg>
