<svg width="234" height="40" viewBox="0 0 234 40" fill="none" xmlns="http://www.w3.org/2000/svg">
<g clip-path="url(#clip0_2_3749)">
<mask id="mask0_2_3749" style="mask-type:luminance" maskUnits="userSpaceOnUse" x="0" y="0" width="41" height="40">
<path d="M40.767 0H0.701172V39.1844H40.767V0Z" fill="white"/>
</mask>
<g mask="url(#mask0_2_3749)">
<path fill-rule="evenodd" clip-rule="evenodd" d="M33.2423 0.000244141C37.3945 0.000244141 40.767 3.37128 40.767 7.52346L40.7671 31.6611C40.7671 35.8122 37.3945 39.1843 33.2423 39.1843H8.2259C8.21122 39.1843 8.19653 39.1843 8.18186 39.1842H0.702587L0.702579 31.8078C0.701642 31.759 0.701172 31.7101 0.701172 31.6611V7.52346C0.701172 3.37128 4.07373 0.000244141 8.22587 0.000244141H33.2423Z" fill="#101010" fill-opacity="0.69"/>
<path d="M18.9107 25.9364L15.6837 25.9332V22.0746C15.6837 21.2502 16.0035 20.8211 16.709 20.7231H18.9107C20.4809 20.7231 21.4965 21.713 21.4965 23.3153C21.4965 24.9609 20.5065 25.9349 18.9107 25.9364ZM15.6837 15.529V14.5133C15.6837 13.6246 16.0598 13.2019 16.8842 13.1473H18.5363C19.9521 13.1473 20.8007 13.9942 20.8007 15.4133C20.8007 16.4932 20.2189 17.7548 18.5877 17.7548H15.6837V15.529ZM23.0313 19.3796L22.4479 19.0517L22.9574 18.6161C23.5503 18.1067 24.5435 16.9609 24.5435 14.9841C24.5435 11.9564 22.1956 10.0039 18.5619 10.0039H14.4157V10.0022H13.9432C12.8664 10.0424 12.0035 10.9183 11.9922 12.0014V29.1811H18.6439C22.6825 29.1811 25.2893 26.9827 25.2893 23.5772C25.2893 21.7436 24.4471 20.1766 23.0313 19.3796Z" fill="white"/>
<path d="M27.0215 26.808C27.0215 25.4956 28.0799 24.4338 29.384 24.4338C30.6914 24.4338 31.7549 25.4956 31.7549 26.808C31.7549 28.1186 30.6914 29.182 29.384 29.182C28.0799 29.182 27.0215 28.1186 27.0215 26.808Z" fill="white"/>
</g>
<path d="M50.7983 30.324V9.41589H59.1698C60.7079 9.41589 61.9908 9.64389 63.0185 10.0999C64.0462 10.5559 64.8187 11.1888 65.336 11.9988C65.8533 12.8019 66.1119 13.7275 66.1119 14.7757C66.1119 15.5924 65.9486 16.3104 65.6219 16.9297C65.2951 17.5423 64.8459 18.0459 64.2742 18.4406C63.7094 18.8286 63.0628 19.1043 62.3345 19.2676V19.4718C63.1308 19.5058 63.8761 19.7304 64.5703 20.1456C65.2713 20.5607 65.8396 21.1427 66.2752 21.8914C66.7108 22.6332 66.9286 23.518 66.9286 24.5457C66.9286 25.6551 66.653 26.6453 66.1017 27.5165C65.5572 28.3808 64.7507 29.0648 63.6821 29.5685C62.6136 30.0722 61.2966 30.324 59.7312 30.324H50.7983ZM55.2188 26.71H58.8226C60.0545 26.71 60.9529 26.4752 61.5179 26.0055C62.0827 25.5291 62.3652 24.8962 62.3652 24.1067C62.3652 23.5282 62.2257 23.0177 61.9466 22.5754C61.6675 22.1329 61.2694 21.7858 60.7522 21.534C60.2417 21.2822 59.6326 21.1563 58.9247 21.1563H55.2188V26.71ZM55.2188 18.165H58.4959C59.1017 18.165 59.6393 18.0596 60.109 17.8485C60.5854 17.6308 60.9597 17.3244 61.232 16.9297C61.511 16.535 61.6505 16.062 61.6505 15.5107C61.6505 14.7552 61.3817 14.1461 60.844 13.6833C60.3132 13.2204 59.5577 12.989 58.5777 12.989H55.2188V18.165ZM76.8084 30.6303C75.2226 30.6303 73.8512 30.2933 72.6941 29.6196C71.5439 28.939 70.6558 27.9929 70.0296 26.7814C69.4034 25.5632 69.0903 24.1509 69.0903 22.5447C69.0903 20.9248 69.4034 19.5092 70.0296 18.2977C70.6558 17.0795 71.5439 16.1334 72.6941 15.4597C73.8512 14.7791 75.2226 14.4387 76.8084 14.4387C78.3942 14.4387 79.7622 14.7791 80.9124 15.4597C82.0695 16.1334 82.9611 17.0795 83.5872 18.2977C84.2134 19.5092 84.5264 20.9248 84.5264 22.5447C84.5264 24.1509 84.2134 25.5632 83.5872 26.7814C82.9611 27.9929 82.0695 28.939 80.9124 29.6196C79.7622 30.2933 78.3942 30.6303 76.8084 30.6303ZM76.8288 27.2613C77.5502 27.2613 78.1526 27.0571 78.6358 26.6487C79.119 26.2336 79.4832 25.6686 79.7282 24.954C79.98 24.2394 80.106 23.4261 80.106 22.5141C80.106 21.6021 79.98 20.7887 79.7282 20.0741C79.4832 19.3595 79.119 18.7946 78.6358 18.3794C78.1526 17.9643 77.5502 17.7566 76.8288 17.7566C76.1006 17.7566 75.488 17.9643 74.9912 18.3794C74.5012 18.7946 74.1302 19.3595 73.8784 20.0741C73.6334 20.7887 73.5109 21.6021 73.5109 22.5141C73.5109 23.4261 73.6334 24.2394 73.8784 24.954C74.1302 25.6686 74.5012 26.2336 74.9912 26.6487C75.488 27.0571 76.1006 27.2613 76.8288 27.2613ZM94.4394 30.6303C92.8536 30.6303 91.4821 30.2933 90.3252 29.6196C89.1749 28.939 88.2867 27.9929 87.6606 26.7814C87.0344 25.5632 86.7214 24.1509 86.7214 22.5447C86.7214 20.9248 87.0344 19.5092 87.6606 18.2977C88.2867 17.0795 89.1749 16.1334 90.3252 15.4597C91.4821 14.7791 92.8536 14.4387 94.4394 14.4387C96.0252 14.4387 97.3933 14.7791 98.5434 15.4597C99.7005 16.1334 100.592 17.0795 101.219 18.2977C101.844 19.5092 102.157 20.9248 102.157 22.5447C102.157 24.1509 101.844 25.5632 101.219 26.7814C100.592 27.9929 99.7005 28.939 98.5434 29.6196C97.3933 30.2933 96.0252 30.6303 94.4394 30.6303ZM94.4598 27.2613C95.1813 27.2613 95.7836 27.0571 96.2668 26.6487C96.7501 26.2336 97.1141 25.6686 97.3592 24.954C97.611 24.2394 97.7369 23.4261 97.7369 22.5141C97.7369 21.6021 97.611 20.7887 97.3592 20.0741C97.1141 19.3595 96.7501 18.7946 96.2668 18.3794C95.7836 17.9643 95.1813 17.7566 94.4598 17.7566C93.7316 17.7566 93.119 17.9643 92.6222 18.3794C92.1322 18.7946 91.7613 19.3595 91.5094 20.0741C91.2644 20.7887 91.1419 21.6021 91.1419 22.5141C91.1419 23.4261 91.2644 24.2394 91.5094 24.954C91.7613 25.6686 92.1322 26.2336 92.6222 26.6487C93.119 27.0571 93.7316 27.2613 94.4598 27.2613ZM108.926 25.8116L108.937 20.5948H109.569L114.592 14.6429H119.584L112.836 22.5243H111.805L108.926 25.8116ZM104.985 30.324V9.41589H109.335V30.324H104.985ZM114.786 30.324L110.172 23.4941L113.071 20.4212L119.88 30.324H114.786ZM121.718 30.324V14.6429H126.067V30.324H121.718ZM123.902 12.6215C123.257 12.6215 122.701 12.4072 122.239 11.9784C121.782 11.5428 121.554 11.0221 121.554 10.4164C121.554 9.81743 121.782 9.30359 122.239 8.87481C122.701 8.43923 123.257 8.22144 123.902 8.22144C124.549 8.22144 125.1 8.43923 125.556 8.87481C126.02 9.30359 126.251 9.81743 126.251 10.4164C126.251 11.0221 126.02 11.5428 125.556 11.9784C125.1 12.4072 124.549 12.6215 123.902 12.6215ZM133.9 21.2584V30.324H129.551V14.6429H133.696V17.4095H133.879C134.226 16.4975 134.809 15.7762 135.625 15.2452C136.442 14.7076 137.432 14.4387 138.596 14.4387C139.685 14.4387 140.634 14.6769 141.444 15.1533C142.255 15.6298 142.884 16.3104 143.333 17.1952C143.782 18.0731 144.007 19.1213 144.007 20.3396V30.324H139.658V21.1155C139.664 20.1558 139.42 19.4071 138.923 18.8694C138.426 18.3249 137.741 18.0527 136.87 18.0527C136.286 18.0527 135.768 18.1787 135.319 18.4305C134.876 18.6823 134.53 19.0498 134.278 19.533C134.032 20.0094 133.906 20.5845 133.9 21.2584ZM154.5 36.5311C153.091 36.5311 151.882 36.3371 150.875 35.9491C149.874 35.5681 149.078 35.0474 148.486 34.3872C147.894 33.727 147.509 32.9851 147.333 32.1616L151.355 31.6205C151.477 31.9336 151.671 32.2263 151.937 32.4985C152.202 32.7708 152.552 32.9885 152.988 33.1519C153.43 33.322 153.968 33.4071 154.601 33.4071C155.547 33.4071 156.327 33.1757 156.94 32.7129C157.558 32.2569 157.868 31.4912 157.868 30.4159V27.5472H157.684C157.494 27.9827 157.208 28.3945 156.826 28.7824C156.446 29.1704 155.956 29.4869 155.357 29.7319C154.758 29.9768 154.043 30.0994 153.213 30.0994C152.035 30.0994 150.964 29.8272 149.997 29.2827C149.037 28.7314 148.271 27.8908 147.7 26.761C147.135 25.6245 146.853 24.1884 146.853 22.4528C146.853 20.6764 147.141 19.1927 147.72 18.0017C148.299 16.8106 149.068 15.9191 150.027 15.3269C150.994 14.7348 152.053 14.4387 153.203 14.4387C154.081 14.4387 154.816 14.5885 155.408 14.888C156 15.1805 156.476 15.5482 156.837 15.9905C157.205 16.4261 157.487 16.8549 157.684 17.2768H157.848V14.6429H162.166V30.4771C162.166 31.8111 161.839 32.9273 161.186 33.8257C160.533 34.7241 159.627 35.3979 158.47 35.8471C157.32 36.3031 155.996 36.5311 154.5 36.5311ZM154.591 26.8325C155.292 26.8325 155.884 26.659 156.368 26.3119C156.858 25.9579 157.232 25.4543 157.491 24.8009C157.756 24.1407 157.889 23.3512 157.889 22.4325C157.889 21.5136 157.759 20.7173 157.501 20.0435C157.242 19.3629 156.867 18.8355 156.378 18.4611C155.888 18.0868 155.292 17.8996 154.591 17.8996C153.876 17.8996 153.274 18.0935 152.784 18.4815C152.294 18.8627 151.923 19.3935 151.671 20.0741C151.42 20.7547 151.294 21.5408 151.294 22.4325C151.294 23.3376 151.42 24.1203 151.671 24.7805C151.93 25.4339 152.3 25.9409 152.784 26.3016C153.274 26.6556 153.876 26.8325 154.591 26.8325ZM168.169 30.5894C167.496 30.5894 166.917 30.3512 166.433 29.8748C165.957 29.3916 165.719 28.813 165.719 28.1393C165.719 27.4723 165.957 26.9005 166.433 26.4242C166.917 25.9478 167.496 25.7095 168.169 25.7095C168.822 25.7095 169.394 25.9478 169.884 26.4242C170.375 26.9005 170.62 27.4723 170.62 28.1393C170.62 28.5884 170.503 29.0003 170.272 29.3746C170.048 29.7421 169.751 30.0381 169.384 30.2627C169.017 30.4805 168.612 30.5894 168.169 30.5894ZM181.275 30.6303C179.668 30.6303 178.287 30.29 177.13 29.6093C175.98 28.9219 175.095 27.9691 174.476 26.7508C173.863 25.5325 173.557 24.1305 173.557 22.5447C173.557 20.9385 173.866 19.5296 174.486 18.3182C175.112 17.0999 176 16.1505 177.15 15.4698C178.3 14.7824 179.668 14.4387 181.255 14.4387C182.622 14.4387 183.82 14.6872 184.848 15.184C185.876 15.6808 186.689 16.3785 187.288 17.2768C187.887 18.1753 188.217 19.2302 188.278 20.4416H184.175C184.059 19.659 183.752 19.0294 183.256 18.5529C182.766 18.0697 182.122 17.8282 181.326 17.8282C180.652 17.8282 180.063 18.0119 179.56 18.3794C179.063 18.7402 178.675 19.2676 178.396 19.9618C178.117 20.6561 177.978 21.4965 177.978 22.4835C177.978 23.484 178.113 24.3347 178.385 25.0357C178.664 25.7367 179.057 26.271 179.56 26.6385C180.063 27.006 180.652 27.1898 181.326 27.1898C181.822 27.1898 182.268 27.0878 182.663 26.8836C183.064 26.6794 183.395 26.3833 183.654 25.9954C183.919 25.6006 184.093 25.1276 184.175 24.5764H188.278C188.21 25.7742 187.884 26.8291 187.299 27.7411C186.72 28.6463 185.92 29.3541 184.9 29.8645C183.878 30.3751 182.67 30.6303 181.275 30.6303ZM198.148 30.6303C196.562 30.6303 195.19 30.2933 194.033 29.6196C192.883 28.939 191.995 27.9929 191.369 26.7814C190.742 25.5632 190.43 24.1509 190.43 22.5447C190.43 20.9248 190.742 19.5092 191.369 18.2977C191.995 17.0795 192.883 16.1334 194.033 15.4597C195.19 14.7791 196.562 14.4387 198.148 14.4387C199.734 14.4387 201.101 14.7791 202.252 15.4597C203.409 16.1334 204.301 17.0795 204.927 18.2977C205.553 19.5092 205.866 20.9248 205.866 22.5447C205.866 24.1509 205.553 25.5632 204.927 26.7814C204.301 27.9929 203.409 28.939 202.252 29.6196C201.101 30.2933 199.734 30.6303 198.148 30.6303ZM198.168 27.2613C198.89 27.2613 199.492 27.0571 199.976 26.6487C200.459 26.2336 200.822 25.6686 201.067 24.954C201.319 24.2394 201.446 23.4261 201.446 22.5141C201.446 21.6021 201.319 20.7887 201.067 20.0741C200.822 19.3595 200.459 18.7946 199.976 18.3794C199.492 17.9643 198.89 17.7566 198.168 17.7566C197.44 17.7566 196.827 17.9643 196.331 18.3794C195.841 18.7946 195.469 19.3595 195.218 20.0741C194.973 20.7887 194.851 21.6021 194.851 22.5141C194.851 23.4261 194.973 24.2394 195.218 24.954C195.469 25.6686 195.841 26.2336 196.331 26.6487C196.827 27.0571 197.44 27.2613 198.168 27.2613ZM208.694 30.324V14.6429H212.839V17.4095H213.022C213.349 16.4908 213.894 15.7659 214.656 15.2351C215.419 14.7042 216.33 14.4387 217.392 14.4387C218.467 14.4387 219.382 14.7076 220.139 15.2452C220.894 15.7762 221.397 16.4975 221.649 17.4095H221.813C222.133 16.5112 222.711 15.7931 223.548 15.2555C224.392 14.711 225.389 14.4387 226.54 14.4387C228.003 14.4387 229.19 14.9049 230.102 15.8373C231.02 16.763 231.48 18.0765 231.48 19.7781V30.324H227.141V20.6356C227.141 19.7645 226.91 19.1111 226.447 18.6755C225.984 18.2399 225.406 18.0221 224.712 18.0221C223.922 18.0221 223.306 18.2739 222.864 18.7776C222.421 19.2744 222.2 19.9312 222.2 20.748V30.324H217.984V20.5438C217.984 19.7747 217.763 19.1621 217.32 18.7061C216.885 18.2501 216.309 18.0221 215.595 18.0221C215.112 18.0221 214.676 18.1446 214.289 18.3896C213.907 18.6279 213.604 18.9647 213.38 19.4004C213.155 19.8291 213.043 20.3327 213.043 20.9113V30.324H208.694Z" fill="#101010" fill-opacity="0.69"/>
</g>
<defs>
<clipPath id="clip0_2_3749">
<rect width="233.171" height="40" fill="white" transform="translate(0.369629)"/>
</clipPath>
</defs>
</svg>
