<svg width="146" height="40" viewBox="0 0 146 40" fill="none" xmlns="http://www.w3.org/2000/svg">
<mask id="mask0_2_3758" style="mask-type:luminance" maskUnits="userSpaceOnUse" x="0" y="0" width="138" height="40">
<path d="M137.992 0.113525H0.431152V39.0708H137.992V0.113525Z" fill="white"/>
</mask>
<g mask="url(#mask0_2_3758)">
<path d="M66.5524 30.5876H62.276C62.2489 30.5876 62.2489 30.5876 62.2354 30.574L58.5545 26.0811L54.8735 30.574C54.8601 30.5876 54.8465 30.5876 54.8329 30.5876H51.4091C51.3821 30.5876 51.3685 30.574 51.355 30.5606C51.355 30.547 51.355 30.52 51.3685 30.5064L56.7952 23.8483L51.4363 17.2578C51.4227 17.2307 51.4227 17.2171 51.4227 17.1901C51.4362 17.1765 51.4497 17.1631 51.4633 17.1631H55.7397C55.7532 17.1631 55.7667 17.1765 55.7802 17.1901L59.0146 21.1959L62.3031 17.1901C62.3165 17.1765 62.3301 17.1631 62.3437 17.1631H65.8216C65.8351 17.1631 65.8622 17.1765 65.8758 17.1901C65.8892 17.2171 65.8758 17.2307 65.8622 17.2578L60.7874 23.361L66.6065 30.5064C66.6201 30.52 66.6201 30.547 66.6201 30.5606C66.5929 30.5876 66.5795 30.5876 66.5524 30.5876Z" fill="#101010" fill-opacity="0.69"/>
<path d="M89.6802 19.5177C87.7856 19.5177 86.4999 20.6681 86.1211 22.6573H92.5626V22.522C92.5626 20.9387 91.3853 19.5177 89.6802 19.5177ZM95.8782 24.7143C95.8647 24.7279 95.8511 24.7414 95.8376 24.7414H86.0534C86.2564 27.0149 87.7314 28.3141 90.1267 28.3141C91.6019 28.3141 93.1716 27.8133 95.3775 26.636C95.4181 26.6089 95.4587 26.6495 95.4587 26.6901V29.6944C95.4587 29.7215 95.4452 29.735 95.4316 29.735C93.3747 30.6011 91.3041 31.1965 89.6802 31.1965C85.4714 31.1965 82.4131 28.1246 82.4131 23.9024C82.4131 19.6802 85.4714 16.6082 89.6802 16.6082C93.5235 16.6082 95.9865 19.1929 95.9865 22.7521C95.9865 23.334 95.8917 24.6737 95.8782 24.7143Z" fill="#101010" fill-opacity="0.69"/>
<path d="M115.744 14.3753C114.54 14.3753 113.565 13.4145 113.565 12.2371C113.565 11.0192 114.54 10.0312 115.744 10.0312C116.949 10.0312 117.923 11.0192 117.923 12.2371C117.923 13.4145 116.949 14.3753 115.744 14.3753ZM113.985 30.5875C113.944 30.5875 113.931 30.5741 113.931 30.5335V17.2036C113.931 17.1766 113.944 17.1495 113.971 17.1495H117.504C117.53 17.1495 117.544 17.1766 117.544 17.2036V30.5335C117.544 30.5741 117.517 30.5875 117.49 30.5875H113.985Z" fill="#101010" fill-opacity="0.69"/>
<path d="M73.0213 28.5847C72.3852 28.5847 71.7357 28.49 70.9778 28.3005L70.9914 19.7478C71.871 19.4636 72.6288 19.3418 73.3867 19.3418C75.8361 19.3418 77.4736 21.1417 77.4736 23.8347C77.4736 26.7172 75.7279 28.5847 73.0213 28.5847ZM73.9821 16.6082C72.9807 16.6082 71.9793 16.7842 70.9238 17.1495H67.4052C67.3781 17.1495 67.3511 17.1765 67.3511 17.2037V39.0591C68.4066 38.9103 69.7058 38.5314 70.9778 37.6382V30.9935C71.844 31.1154 72.5612 31.1965 73.2514 31.1965C78.069 31.1965 81.1816 28.3141 81.1816 23.8483C81.1816 19.5854 78.2179 16.6082 73.9821 16.6082Z" fill="#101010" fill-opacity="0.69"/>
<path d="M107.557 27.4749C106.461 28.0568 105.473 28.3274 104.553 28.3274C102.374 28.3274 101.061 26.7847 101.061 24.2C101.061 21.2227 102.725 19.2875 105.311 19.2875C106.028 19.2875 106.718 19.4635 107.557 19.8425V27.4749ZM107.557 10.0987V17.0682C106.528 16.7705 105.622 16.6351 104.701 16.6351C100.506 16.6351 97.353 19.7883 97.353 23.9834C97.353 28.1515 100.141 31.1829 103.984 31.1829C105.311 31.1829 106.556 30.8446 108.017 30.1003V31.3047C108.978 31.1152 110.087 30.7363 111.184 29.9514V8.66431C110.115 8.81317 108.842 9.17856 107.557 10.0987Z" fill="#101010" fill-opacity="0.69"/>
<path d="M129.791 27.4478C128.723 28.0568 127.815 28.3544 127.003 28.3544C124.662 28.3544 123.269 26.8117 123.269 24.2269C123.269 21.2903 124.92 19.3145 127.369 19.3145C128.018 19.3145 128.817 19.5717 129.791 20.0859V27.4478ZM133.418 16.9869C133.418 16.9057 133.351 16.838 133.269 16.838H130.414C130.332 16.838 130.251 16.9057 130.251 16.9869V17.4741H130.184C128.871 16.8922 127.734 16.635 126.639 16.635C122.686 16.635 119.588 19.91 119.588 24.1052C119.588 28.341 122.362 31.1828 126.489 31.1828C127.586 31.1828 129.006 31.1016 130.332 29.5859V31.3046C131.266 31.1016 132.376 30.7092 133.418 29.9513V16.9869Z" fill="#101010" fill-opacity="0.69"/>
<path d="M41.6386 27.2586H50.5025C50.3672 28.2465 50.0289 29.4104 49.2711 30.5877H40.0552C38.932 30.5877 37.9982 29.708 37.8899 28.6119C37.8899 28.5984 37.8765 28.5848 37.8765 28.5578V11.0734C37.8765 11.0598 37.8899 11.0464 37.8899 11.0328C37.9982 9.92314 38.932 9.04346 40.0552 9.04346H50.489C50.3537 10.0313 50.0154 11.2223 49.244 12.3996H41.6386V17.1631H49.1764C49.2034 17.1631 49.2305 17.1902 49.2305 17.2173V20.5192C49.2305 20.5464 49.2034 20.5734 49.1764 20.5734H41.6386V27.2586Z" fill="#101010" fill-opacity="0.69"/>
<path d="M19.1063 12.3858L18.4703 10.5725L13.0031 3.27828L13.9775 3.03469L23.3827 11.1679L28.9177 9.58458C29.5672 9.42219 30.3115 9.38158 30.8664 9.38158C29.1342 5.633 25.9405 2.54751 21.7453 1.05891C13.4497 -1.90478 4.31503 2.43925 1.36487 10.7484C0.444644 13.3196 0.241652 15.9721 0.620571 18.4892L13.8692 13.888L19.1063 12.3858Z" fill="#101010" fill-opacity="0.69"/>
<path d="M31.4618 10.8162C30.9746 11.1274 30.2574 11.5469 29.5537 11.7769L24.0052 13.3603L20.3108 25.2421L19.3499 25.5533L20.1349 16.4864L19.7018 14.6053L14.5052 16.0939L0.755859 19.3012C1.85202 24.579 5.58707 29.1937 11.0408 31.1288C19.3499 34.0926 28.4711 29.7486 31.4347 21.4394C32.7068 17.8803 32.6256 14.1452 31.4618 10.8162Z" fill="#101010" fill-opacity="0.69"/>
<path d="M19.6882 14.5918L20.1213 16.4729L19.3363 25.5399L20.2972 25.2286L23.9916 13.3468L29.5401 11.7634C30.2438 11.5333 30.961 11.1274 31.4482 10.8026C31.2723 10.3154 31.0828 9.84183 30.8662 9.36813C30.298 9.36813 29.5671 9.39519 28.9176 9.57112L23.3826 11.1544L13.9774 3.02124L13.003 3.26483L18.4567 10.559L19.0928 12.3725L13.8555 13.8745L0.606934 18.4757C0.647532 18.7464 0.701663 19.0305 0.755794 19.3012L14.4916 16.0669L19.6882 14.5918Z" fill="white"/>
</g>
</svg>
