<svg width="128" height="40" viewBox="0 0 128 40" fill="none" xmlns="http://www.w3.org/2000/svg">
<mask id="mask0_2_3713" style="mask-type:luminance" maskUnits="userSpaceOnUse" x="1" y="0" width="126" height="40">
<path d="M126.908 0.0800781H1.66895V39.1045H126.908V0.0800781Z" fill="white"/>
</mask>
<g mask="url(#mask0_2_3713)">
<path d="M43.0581 8.67041H49.6848L54.7163 22.2922H54.8391L59.625 8.67041H65.8837L58.0297 28.7962H51.5256" fill="#101010" fill-opacity="0.69"/>
<path d="M18.8827 13.7018H12.7467V20.4513C12.7467 21.5558 12.8695 23.0283 13.974 23.7647C15.0784 24.2556 16.3056 24.3783 17.5328 24.1328C18.0237 24.1328 18.5145 23.8874 18.8827 23.642V28.7961C18.1463 29.0416 17.2873 29.1643 16.551 29.287C12.1332 29.7779 6.12001 28.9189 6.12001 23.3965V13.8245H1.70215V8.67035H5.99728V2.77988H12.7467V8.67035H18.8827V13.7018ZM36.186 8.67035H42.3219V28.7961H36.186V8.67035ZM35.9405 3.39347C35.8178 1.67541 37.2904 0.0800781 39.1312 0.0800781C40.972 0.0800781 42.4446 1.42998 42.4446 3.27075V3.39347C42.4446 5.23424 40.8493 6.70686 39.1312 6.58415C37.4132 6.58415 35.9405 5.23424 35.9405 3.39347Z" fill="#101010" fill-opacity="0.69"/>
<path d="M112.271 18.7333C112.271 21.4331 113.867 23.7647 116.689 23.7647C119.511 23.7647 121.108 21.4331 121.108 18.7333C121.108 16.0335 119.511 13.7017 116.689 13.7017C113.867 13.7017 112.271 16.0335 112.271 18.7333ZM106.749 18.7333C106.504 13.2109 110.798 8.4249 116.321 8.17947C119.634 8.05676 122.703 9.52937 124.788 12.1064C127.243 15.6653 127.611 20.2058 125.648 24.1329C122.948 29.0415 116.812 30.7596 111.904 28.0598C108.589 26.219 106.504 22.6602 106.749 18.7333ZM100.122 8.67035V11.3701H99.9992C99.8763 11.1247 99.6314 10.8793 99.3856 10.6338C95.3362 7.19772 88.5867 7.93404 86.0095 12.7201C84.7824 15.2972 84.4142 18.2423 84.9052 21.0649C85.2733 23.6419 86.255 26.3417 88.464 27.8144C91.0411 29.4097 94.109 29.7778 96.9315 28.6735C97.9133 28.3053 98.7719 27.569 99.5085 26.7099H99.6314V28.6735C99.7543 30.0233 99.2636 31.2505 98.4042 32.2323C96.6861 34.0731 93.2499 33.9503 90.9183 33.3367C89.6911 32.9686 88.464 32.4776 87.3595 31.7414L84.2915 36.1592C85.7642 37.2637 87.3595 38 89.0776 38.4909C93.4954 39.5953 99.5085 39.5953 102.945 36.1592C104.908 34.1957 105.644 31.2505 105.644 27.4462V8.67035H100.122ZM98.6499 22.5375C96.9315 24.3782 94.109 24.501 92.2682 22.7829L92.0228 22.5375C90.4275 20.3286 90.4275 17.3833 92.0228 15.1744C93.7409 13.3336 96.5634 13.2109 98.4042 14.929L98.6499 15.1744C100.245 17.2606 100.245 20.3286 98.6499 22.5375C99.3856 21.5558 97.7905 23.3966 98.6499 22.5375Z" fill="#101010" fill-opacity="0.69"/>
<path d="M20.478 8.67038H26.7367V11.9838H26.8594C27.3503 10.8793 28.2093 9.89751 29.1911 9.16125C30.9091 8.30222 32.8726 7.93407 34.7133 8.42494V14.07C33.4862 13.7018 30.7864 13.211 28.9456 14.3155C27.7184 15.0518 26.8594 15.9108 26.8594 20.3286V28.6734H20.6008L20.478 8.67038Z" fill="#101010" fill-opacity="0.69"/>
<path d="M71.6516 20.8195C70.4245 21.5558 69.5655 23.0284 70.6699 24.2556C71.7743 25.36 73.7378 25.2374 75.0878 24.7464C76.6831 24.3783 77.7876 22.9057 77.7876 21.3103V20.0831C77.9102 20.0831 73.247 19.8377 71.6516 20.8195ZM77.9102 26.3417C77.1739 27.3235 76.1922 28.1825 75.0878 28.6735C70.6699 30.5142 64.4113 28.6735 64.2886 23.1511C64.2886 17.3833 70.5472 16.2789 75.0878 16.1562H77.9102C77.9102 15.1744 77.5421 14.1927 76.6831 13.5791C75.8994 12.9846 74.9586 12.633 73.9771 12.5675C72.9956 12.502 72.0165 12.7257 71.1608 13.2109C70.3017 13.7018 69.5655 14.1927 68.9518 14.929L65.5157 11.4929C66.6202 10.3884 68.0928 9.65211 69.5655 9.03852C72.388 8.05677 75.3332 7.93405 78.1557 8.67036C80.7328 9.40668 82.5736 11.4929 83.0645 14.0699C83.3098 15.5426 83.4326 17.0152 83.4326 18.4878V28.6735H77.7876L77.9102 26.3417Z" fill="#101010" fill-opacity="0.69"/>
</g>
</svg>
